<?xml version="1.0" encoding="UTF-8"?>
<svg version="1.1" xmlns="http://www.w3.org/2000/svg" width="512" height="512">
<path d="M0 0 C168.96 0 337.92 0 512 0 C512 168.96 512 337.92 512 512 C343.04 512 174.08 512 0 512 C0 343.04 0 174.08 0 0 Z " fill="#CC0000" transform="translate(0,0)"/>
<path d="M0 0 C88.03805052 0 88.03805052 0 101.40234375 12.1953125 C112.17734751 24.36658815 112.90724728 38.54991476 112 54 C110.55437478 64.46240629 105.499244 73.7968605 97.26953125 80.46875 C86.55372814 87.69868945 75.80557217 89.30791053 63.1875 89.1953125 C62.11435547 89.19329834 61.04121094 89.19128418 59.93554688 89.18920898 C55.95698728 89.17880715 51.97848899 89.15088492 48 89.125 C39.09 89.08375 30.18 89.0425 21 89 C21 109.13 21 129.26 21 150 C14.07 150 7.14 150 0 150 C0 100.5 0 51 0 0 Z " fill="#FDF9F9" transform="translate(320,181)"/>
<path d="M0 0 C0.96196289 0.00418945 1.92392578 0.00837891 2.91503906 0.01269531 C10.38856971 0.1309235 17.05421395 0.95506074 24.1875 3.3125 C25.05117188 3.5909375 25.91484375 3.869375 26.8046875 4.15625 C41.75555268 9.55905486 52.20778007 19.14158049 58.99609375 33.453125 C61.25294428 38.86956628 62.1875 42.29020799 62.1875 48.3125 C55.5875 48.3125 48.9875 48.3125 42.1875 48.3125 C41.65125 46.6625 41.115 45.0125 40.5625 43.3125 C37.34010726 34.53542327 32.35672946 28.01853475 24.1875 23.3125 C10.44530248 17.34674712 -4.61925816 15.85727465 -18.9140625 20.98828125 C-31.79163306 26.87169961 -39.45599962 36.43410547 -44.8125 49.3125 C-51.88780613 69.98781091 -51.06015679 94.05273194 -41.5625 113.75 C-35.80286672 124.49886975 -28.61602666 131.95877556 -17.10546875 136.34375 C-3.37774538 140.40009507 11.00237576 139.64155881 23.7109375 132.9921875 C33.30364208 127.16007807 39.36486225 117.31142896 42.1640625 106.5625 C42.89845599 103.15820867 43.54974962 99.73621256 44.1875 96.3125 C50.7875 96.3125 57.3875 96.3125 64.1875 96.3125 C63.07805163 114.89576027 55.77130019 130.7315307 42.1875 143.3125 C26.23543727 156.25429235 5.90364307 157.52209955 -13.8125 156.3125 C-28.34256084 154.49845465 -39.62381034 147.44867064 -49.8125 137.3125 C-50.75222656 136.42498047 -50.75222656 136.42498047 -51.7109375 135.51953125 C-68.42655626 118.38791293 -70.31986023 92.82823288 -70.09375 70.31640625 C-69.87485767 62.10466053 -68.58206147 55.04911105 -65.8125 47.3125 C-65.45027344 46.25546875 -65.08804688 45.1984375 -64.71484375 44.109375 C-58.18777039 26.85135053 -46.30435322 13.90113817 -29.796875 5.83984375 C-19.98133375 1.5235224 -10.68608311 -0.06403363 0 0 Z " fill="#FDFAFA" transform="translate(247.8125,177.6875)"/>
<path d="M0 0 C6.6 0 13.2 0 20 0 C20.0463609 15.50787709 20.08202147 31.01574402 20.10362434 46.52367401 C20.11392296 53.7247911 20.12795615 60.92586425 20.15087891 68.12695312 C20.1708562 74.4057482 20.18372672 80.68451144 20.18817699 86.96333742 C20.19077705 90.28581985 20.19791868 93.60819037 20.21146011 96.9306488 C20.22599878 100.64587785 20.22797691 104.36091891 20.22705078 108.07617188 C20.23424133 109.16949829 20.24143188 110.26282471 20.24884033 111.38928223 C20.21731691 123.09244002 17.47736873 133.55382264 9.3125 142.3125 C-2.04600548 152.86120584 -16.15542944 153.60225244 -30.9140625 153.30859375 C-42.34544355 152.80235288 -50.99442391 148.46237606 -58.74609375 140.12109375 C-66.25996572 130.84586526 -68.17408104 120.78699059 -68.0625 109.1875 C-68.041875 106.155625 -68.02125 103.12375 -68 100 C-61.4 100 -54.8 100 -48 100 C-47.896875 102.26875 -47.79375 104.5375 -47.6875 106.875 C-47.15803376 115.72725349 -45.83560463 123.96294736 -40 131 C-33.079868 136.0170957 -25.26516467 135.65322926 -17 135 C-12.43382396 133.81831731 -9.12913882 132.0102821 -5.625 128.875 C-1.20456436 121.05422925 -0.55555348 113.03935005 -0.56762695 104.21630859 C-0.5574353 103.08343414 -0.54724365 101.95055969 -0.53674316 100.78335571 C-0.50676149 97.07166503 -0.49736969 93.36023306 -0.48828125 89.6484375 C-0.47142362 87.06197258 -0.45327193 84.47551579 -0.43388367 81.8890686 C-0.39132836 75.79786677 -0.36173863 69.70673081 -0.33856028 63.61542857 C-0.31141573 56.67450074 -0.2675104 49.73370961 -0.22227156 42.79287982 C-0.12967208 28.5286613 -0.0584734 14.26439656 0 0 Z " fill="#FDFBFB" transform="translate(148,181)"/>
<path d="M0 0 C7.05375 -0.04125 14.1075 -0.0825 21.375 -0.125 C23.58106934 -0.14320801 25.78713867 -0.16141602 28.06005859 -0.18017578 C29.83951577 -0.18602562 31.61897565 -0.19112001 33.3984375 -0.1953125 C34.29731689 -0.20554443 35.19619629 -0.21577637 36.12231445 -0.22631836 C45.92093722 -0.22897309 56.99964786 0.96913707 64.7890625 7.5 C70.138253 13.1917495 72.09734377 19.67210726 72.4375 27.375 C72.15877904 35.33527066 70.17619546 42.44710819 64.25 48 C55.57191948 54.74244918 45.96836079 55.15408604 35.3515625 55.09765625 C34.45332764 55.09664917 33.55509277 55.09564209 32.62963867 55.09460449 C29.29474601 55.08939768 25.95987164 55.07543651 22.625 55.0625 C15.15875 55.041875 7.6925 55.02125 0 55 C0 36.85 0 18.7 0 0 Z " fill="#CC0101" transform="translate(340,198)"/>
<path d="M0 0 C7.198125 -0.04125 14.39625 -0.0825 21.8125 -0.125 C24.08229736 -0.14320801 26.35209473 -0.16141602 28.69067383 -0.18017578 C30.48779056 -0.18601647 32.28490993 -0.19111303 34.08203125 -0.1953125 C35.01672241 -0.20554443 35.95141357 -0.21577637 36.91442871 -0.22631836 C37.80738647 -0.22656006 38.70034424 -0.22680176 39.62036133 -0.22705078 C40.39535477 -0.231492 41.17034821 -0.23593323 41.96882629 -0.24050903 C44 0 44 0 47 2 C32.15 2 17.3 2 2 2 C2 18.83 2 35.66 2 53 C17.51 53 33.02 53 49 53 C45.82103387 55.11931075 45.07025468 55.2469603 41.43676758 55.22705078 C40.50320435 55.22680908 39.56964111 55.22656738 38.60778809 55.22631836 C37.14097595 55.21097046 37.14097595 55.21097046 35.64453125 55.1953125 C34.74327515 55.19329834 33.84201904 55.19128418 32.91345215 55.18920898 C29.54641634 55.17874401 26.17945306 55.15082142 22.8125 55.125 C15.284375 55.08375 7.75625 55.0425 0 55 C0 36.85 0 18.7 0 0 Z " fill="#D23838" transform="translate(340,198)"/>
<path d="M0 0 C0.33 0 0.66 0 1 0 C1.15388421 15.46380454 1.30191798 30.92765686 1.4429636 46.39158344 C1.5085885 53.57155082 1.57613662 60.75149054 1.64819336 67.93139648 C1.71098413 74.18850311 1.77018575 80.44563157 1.82505554 86.70281285 C1.85424161 90.01674098 1.88577486 93.33061996 1.92053413 96.64449501 C1.9590077 100.3415033 1.99113729 104.03851499 2.02172852 107.7355957 C2.03467453 108.83754776 2.04762054 109.93949982 2.06095886 111.07484436 C2.06799835 112.08025269 2.07503784 113.08566101 2.08229065 114.12153625 C2.09058679 114.9963178 2.09888292 115.87109934 2.10743046 116.77238941 C2 119 2 119 1 122 C0.34 122 -0.32 122 -1 122 C-0.67 81.74 -0.34 41.48 0 0 Z " fill="#CC0D0D" transform="translate(145,182)"/>
<path d="M0 0 C1.96285585 2.94428378 3.4704839 5.90481323 5.0625 9.0625 C8.10532276 14.78377389 11.56075425 19.29186585 16.08203125 23.9765625 C18 26 18 26 20 29 C17 29 17 29 15.39453125 27.7578125 C14.87246094 27.21898437 14.35039062 26.68015625 13.8125 26.125 C13.28269531 25.59132813 12.75289062 25.05765625 12.20703125 24.5078125 C11 23 11 23 11 21 C10.34 21 9.68 21 9 21 C7.38035645 18.61065429 5.89236242 16.23682644 4.4375 13.75 C4.02564453 13.06808594 3.61378906 12.38617188 3.18945312 11.68359375 C-0.40089151 5.63113062 -0.40089151 5.63113062 -1 2 C-0.67 1.34 -0.34 0.68 0 0 Z " fill="#CD1D1D" transform="translate(183,291)"/>
<path d="M0 0 C-0.86625 0.63615234 -0.86625 0.63615234 -1.75 1.28515625 C-6.21863884 4.69094176 -10.45456115 8.41389171 -14.375 12.4375 C-16 14 -16 14 -18 14 C-17.46982819 10.05022002 -15.71422924 8.48457778 -12.75 5.9375 C-11.98171875 5.26589844 -11.2134375 4.59429687 -10.421875 3.90234375 C-3.8289284 -1.27630947 -3.8289284 -1.27630947 0 0 Z " fill="#CC0B0B" transform="translate(229,200)"/>
<path d="M0 0 C5.66570068 0.60315487 7.72237881 3.46025731 11.26171875 7.6328125 C13.22669072 10.30870691 14.3320164 12.74357993 15 16 C14.34 16.33 13.68 16.66 13 17 C12.62488281 16.25234375 12.24976563 15.5046875 11.86328125 14.734375 C8.11617511 7.38484906 8.11617511 7.38484906 2 2 C1.34 1.34 0.68 0.68 0 0 Z " fill="#CD1818" transform="translate(273,203)"/>
<path d="M0 0 C0.66 0 1.32 0 2 0 C0.58036591 5.67853635 -2.39363961 9.53174216 -6 14 C-6.33 13.01 -6.66 12.02 -7 11 C-5.63671875 8.30078125 -5.63671875 8.30078125 -3.6875 5.3125 C-3.05199219 4.31863281 -2.41648437 3.32476562 -1.76171875 2.30078125 C-1.18035156 1.54152344 -0.59898437 0.78226563 0 0 Z " fill="#CC1414" transform="translate(429,245)"/>
<path d="M0 0 C0.66 1.32 1.32 2.64 2 4 C1.01 5.485 1.01 5.485 0 7 C-0.66 7 -1.32 7 -2 7 C-1.34 4.69 -0.68 2.38 0 0 Z M-3 7 C-2.67 7.99 -2.34 8.98 -2 10 C-3.4375 12.1875 -3.4375 12.1875 -5 14 C-5.99 13.67 -6.98 13.34 -8 13 C-6.35 11.02 -4.7 9.04 -3 7 Z " fill="#CD1C1C" transform="translate(165,309)"/>
<path d="M0 0 C0.99 0 1.98 0 3 0 C3.05391993 1.79133978 3.09275571 3.58313899 3.125 5.375 C3.14820313 6.37273437 3.17140625 7.37046875 3.1953125 8.3984375 C3 11 3 11 1 13 C0.1276588 10.00519083 -0.10829766 7.36424089 -0.0625 4.25 C-0.05347656 3.45078125 -0.04445312 2.6515625 -0.03515625 1.828125 C-0.02355469 1.22484375 -0.01195312 0.6215625 0 0 Z " fill="#CF2B2B" transform="translate(198,259)"/>
<path d="M0 0 C0.33 0.99 0.66 1.98 1 3 C0.34 3 -0.32 3 -1 3 C-1 3.66 -1 4.32 -1 5 C-6.17578125 8.22265625 -6.17578125 8.22265625 -8 9 C-8.99 8.67 -9.98 8.34 -11 8 C-7.76446401 5.51112616 -4.39550259 3.26366839 -1 1 C-0.67 0.67 -0.34 0.34 0 0 Z " fill="#CD1C1C" transform="translate(156,323)"/>
<path d="M0 0 C0.66 0.66 1.32 1.32 2 2 C1.42307692 8.57692308 1.42307692 8.57692308 0 10 C-0.36760731 12.32817964 -0.70241581 14.6618385 -1 17 C-1.33 17 -1.66 17 -2 17 C-2.25287193 10.93107371 -1.69832609 5.83799592 0 0 Z " fill="#CC1616" transform="translate(178,232)"/>
<path d="M0 0 C7.48291572 6.15034169 7.48291572 6.15034169 10 10 C7 10 7 10 5.17578125 8.3203125 C4.56089844 7.59585937 3.94601563 6.87140625 3.3125 6.125 C2.68988281 5.40570313 2.06726563 4.68640625 1.42578125 3.9453125 C0 2 0 2 0 0 Z " fill="#CF2A2A" transform="translate(193,310)"/>
<path d="M0 0 C-3.78912441 2.99972349 -7.88831832 5.47510809 -12 8 C-11.62830496 5.36997598 -11.2921315 4.25479631 -9.2578125 2.48046875 C-8.20207031 1.84044922 -8.20207031 1.84044922 -7.125 1.1875 C-6.42632812 0.74792969 -5.72765625 0.30835938 -5.0078125 -0.14453125 C-3 -1 -3 -1 0 0 Z " fill="#CD1919" transform="translate(229,200)"/>
<path d="M0 0 C0 0.33 0 0.66 0 1 C-1.91166247 1.5590711 -3.82961576 2.09666462 -5.75 2.625 C-6.81734375 2.92664063 -7.8846875 3.22828125 -8.984375 3.5390625 C-12.21888938 4.03345719 -13.33874255 3.79570284 -16 2 C-10.42932723 0.40837921 -5.78898419 -0.20674944 0 0 Z " fill="#CC1515" transform="translate(243,176)"/>
<path d="M0 0 C0.66 0.66 1.32 1.32 2 2 C-4.4 6.06153846 -4.4 6.06153846 -7.4375 5.75 C-7.953125 5.5025 -8.46875 5.255 -9 5 C-6.08596738 3.05731159 -3.14191424 1.53604696 0 0 Z " fill="#CD1E1E" transform="translate(413,263)"/>
<path d="M0 0 C0.89332031 0.30164063 1.78664063 0.60328125 2.70703125 0.9140625 C3.60808594 1.21054688 4.50914062 1.50703125 5.4375 1.8125 C6.46810547 2.17214844 6.46810547 2.17214844 7.51953125 2.5390625 C6.85953125 3.1990625 6.19953125 3.8590625 5.51953125 4.5390625 C1.88953125 3.5490625 -1.74046875 2.5590625 -5.48046875 1.5390625 C-2.48046875 -0.4609375 -2.48046875 -0.4609375 0 0 Z " fill="#CC1414" transform="translate(262.48046875,196.4609375)"/>
<path d="M0 0 C3.34373475 0.55728913 6.03312999 1.35173889 9 3 C8.67 3.99 8.34 4.98 8 6 C5.36 4.68 2.72 3.36 0 2 C0 1.34 0 0.68 0 0 Z " fill="#CD1919" transform="translate(276,181)"/>
<path d="M0 0 C2.01136276 2.55991624 3.62845496 5.04590299 5 8 C4.01 8 3.02 8 2 8 C0.25 5.6875 0.25 5.6875 -1 3 C-0.67 2.01 -0.34 1.02 0 0 Z " fill="#CE2323" transform="translate(83,311)"/>
<path d="M0 0 C0.66 0 1.32 0 2 0 C0.73058503 3.91402949 -0.51167694 5.79072873 -4 8 C-3.40312566 4.65750371 -2.26396123 2.53563658 0 0 Z " fill="#CC1919" transform="translate(302,306)"/>
</svg>
